<svg width="1680" height="720" viewBox="0 0 1680 720" fill="none" xmlns="http://www.w3.org/2000/svg">
<g clip-path="url(#clip0_1_2)">
<path d="M109.631 58.2228C107.869 57.5815 107.309 56.3799 107.95 54.618L109.532 50.2719C110.173 48.51 111.375 47.9497 113.137 48.591L162.118 66.4188C163.88 67.06 164.441 68.2617 163.799 70.0236L162.324 74.076C161.868 75.3289 160.65 76.4819 158.671 77.5351C147.605 83.5728 137.737 91.1328 129.066 100.215C120.409 109.258 113.765 120.142 109.134 132.867L107.124 138.388C106.483 140.149 105.282 140.71 103.52 140.068L98.1752 138.123C96.4132 137.482 95.8529 136.28 96.4942 134.518L97.7554 131.053C102.9 116.919 110.107 105.464 119.375 96.6878C128.659 87.8729 139.075 80.0247 150.625 73.1434L150.668 73.026C149.465 72.6768 148.276 72.2884 147.101 71.8609L109.631 58.2228Z" fill="#A2A2A2"/>
<path d="M372.53 53.7748C372.707 51.241 373.576 49.9005 375.138 49.7532L380.22 49.267C382.43 49.0608 383.358 50.5192 383.004 53.6422C382.621 57.0894 382.931 60.5513 383.932 64.0279C384.993 67.5045 386.761 70.4802 389.236 72.9551C394.097 77.8165 398.752 80.0556 403.201 79.6726C407.65 79.2896 411.893 77.0799 415.929 73.0435C420.201 68.7714 421.939 64.3225 421.144 59.6969C420.348 55.0712 418.271 51.079 414.913 47.7202L411.024 43.8311C409.698 42.5053 409.521 41.3563 410.493 40.384L413.764 37.1136C414.795 36.0824 415.973 36.2297 417.299 37.5556L420.437 40.6934C423.678 43.9343 427.508 45.6431 431.927 45.8199C436.376 46.0261 440.427 44.3025 444.081 40.6492C446.615 38.1154 447.764 35.1102 447.528 31.6336C447.292 28.1569 445.495 24.7393 442.136 21.3805C438.984 18.228 435.684 16.3718 432.237 15.812C428.79 15.2522 426.123 15.0902 424.238 15.3259C421.733 15.65 420.452 14.8103 420.393 12.8068L420.304 7.68031C420.275 6.17771 421.836 5.29382 424.989 5.02866C428.318 4.76349 432.134 5.33802 436.435 6.75223C440.766 8.19591 444.92 10.9065 448.898 14.884C454.997 20.9828 458.179 27.111 458.444 33.2687C458.709 39.4265 456.499 44.8476 451.815 49.5322C448.102 53.2445 443.845 55.2038 439.043 55.41C434.299 55.6163 430.277 54.6587 426.978 52.5374L426.801 52.7142C429.511 56.3086 430.823 61.0374 430.734 66.9005C430.646 72.7636 428.539 77.7575 424.414 81.8823C418.286 88.0106 411.672 91.06 404.571 91.0305C397.53 91.0011 390.149 87.1267 382.43 79.4075C377.952 74.9291 375.123 70.3624 373.945 65.7073C372.796 61.0227 372.324 57.0452 372.53 53.7748Z" fill="#A2A2A2"/>
<path d="M915.25 644.777C913.626 645.715 912.346 645.372 911.408 643.748L909.096 639.743C908.158 638.119 908.501 636.838 910.125 635.901L955.267 609.838C956.891 608.901 958.171 609.244 959.109 610.868L961.265 614.602C961.932 615.757 962.032 617.431 961.566 619.624C959.079 631.982 958.527 644.401 959.911 656.881C961.273 669.325 965.34 681.411 972.111 693.139L975.049 698.226C975.986 699.85 975.643 701.131 974.019 702.068L969.094 704.912C967.47 705.85 966.189 705.507 965.252 703.883L963.408 700.689C955.887 687.663 951.744 674.779 950.98 662.038C950.194 649.26 950.878 636.236 953.031 622.965L952.968 622.857C951.927 623.554 950.865 624.215 949.783 624.84L915.25 644.777Z" fill="#A2A2A2"/>
<path d="M1604.15 609.724C1602.39 610.365 1601.19 609.805 1600.55 608.043L1598.96 603.697C1598.32 601.935 1598.88 600.733 1600.64 600.092L1649.63 582.264C1651.39 581.623 1652.59 582.183 1653.23 583.945L1654.71 587.997C1655.16 589.25 1654.97 590.916 1654.13 592.995C1649.54 604.734 1646.83 616.868 1646.03 629.399C1645.21 641.89 1647.12 654.499 1651.75 667.224L1653.76 672.745C1654.4 674.506 1653.84 675.708 1652.08 676.349L1646.73 678.295C1644.97 678.936 1643.77 678.376 1643.13 676.614L1641.87 673.148C1636.72 659.014 1634.88 645.606 1636.34 632.926C1637.79 620.206 1640.72 607.499 1645.14 594.803L1645.1 594.685C1643.96 595.191 1642.8 595.658 1641.62 596.086L1604.15 609.724Z" fill="#A2A2A2"/>
<path d="M1190.71 630.236C1189.09 631.856 1187.62 632.004 1186.29 630.678L1184.17 628.557C1183.02 627.408 1182.44 625.861 1182.44 623.916L1182.31 589.135C1182.28 578.853 1181.66 571.517 1180.46 567.127C1179.25 562.678 1176.8 558.612 1173.12 554.929C1170.03 551.835 1166.49 550.127 1162.51 549.803C1158.57 549.449 1154.75 551.114 1151.07 554.796C1147.77 558.096 1145.87 561.676 1145.37 565.536C1144.87 569.395 1146.1 573.785 1149.08 578.706C1150.35 580.797 1150.12 582.315 1148.42 583.258L1143.95 585.688C1142.77 586.336 1141.3 585.305 1139.53 582.595C1136.53 577.881 1135.17 572.4 1135.47 566.154C1135.76 559.849 1138.63 553.972 1144.08 548.521C1151.01 541.597 1157.8 538.283 1164.46 538.577C1171.15 538.842 1177.01 541.494 1182.05 546.532C1186.97 551.452 1189.88 557.021 1190.8 563.238C1191.74 569.425 1192.14 577.041 1191.99 586.086L1191.55 614.724L1191.73 614.901C1192.46 614.046 1193.61 612.838 1195.17 611.277L1219.26 587.191C1220.88 585.57 1222.35 585.423 1223.68 586.749L1226.95 590.019C1228.27 591.345 1228.13 592.818 1226.51 594.439L1190.71 630.236Z" fill="#A2A2A2"/>
<path d="M1338.69 458.487C1336.62 456.885 1336.03 455.404 1336.91 454.045L1339.77 449.721C1340.81 448.147 1342.54 448.225 1344.94 449.953C1346.38 450.99 1348.78 452.309 1352.15 453.91C1355.51 455.511 1359.38 455.724 1363.77 454.548C1369.53 453.006 1373.38 450.076 1375.33 445.758C1377.32 441.429 1377.53 436.346 1375.97 430.51C1374.49 424.997 1372.08 420.984 1368.73 418.473C1365.38 415.962 1361.21 415.376 1356.22 416.713C1353.12 417.543 1350.63 418.535 1348.74 419.689C1346.85 420.843 1345.05 422.682 1343.36 425.207C1342.18 426.945 1340.75 428.04 1339.06 428.493L1336.22 429.254C1334.41 429.739 1333.26 429.076 1332.78 427.265L1321.34 384.583C1320.86 382.772 1321.52 381.624 1323.33 381.138L1364.99 369.977C1366.8 369.492 1367.95 370.154 1368.43 371.966L1369.63 376.433C1370.11 378.244 1369.45 379.392 1367.64 379.878L1333.89 388.92L1340.28 412.766C1340.61 413.974 1340.89 415.192 1341.13 416.421L1341.37 416.356C1343.12 413.861 1345.41 411.846 1348.23 410.313C1351.05 408.78 1353.75 407.668 1356.33 406.978C1363.82 404.972 1370.4 405.882 1376.09 409.708C1381.77 413.534 1385.69 419.492 1387.86 427.581C1390.22 436.395 1389.46 443.999 1385.56 450.391C1381.71 456.773 1375.29 461.166 1366.32 463.571C1359.76 465.329 1354.1 465.399 1349.36 463.781C1344.64 462.112 1341.08 460.347 1338.69 458.487Z" fill="#A2A2A2"/>
<path d="M1486.96 263.217C1484.7 262.819 1483.74 261.697 1484.06 259.85L1484.58 256.896C1484.86 255.295 1485.8 253.938 1487.39 252.822L1515.81 232.764C1524.22 226.842 1529.87 222.127 1532.77 218.62C1535.72 215.079 1537.65 210.743 1538.56 205.614C1539.32 201.306 1538.69 197.429 1536.67 193.985C1534.7 190.549 1531.15 188.378 1526.02 187.473C1521.42 186.663 1517.4 187.16 1513.95 188.963C1510.5 190.767 1507.61 194.298 1505.29 199.558C1504.3 201.796 1502.93 202.485 1501.18 201.626L1496.63 199.364C1495.42 198.77 1495.42 196.972 1496.63 193.969C1498.77 188.804 1502.48 184.55 1507.76 181.209C1513.1 177.834 1519.56 176.816 1527.15 178.154C1536.79 179.854 1543.41 183.516 1546.98 189.14C1550.6 194.77 1551.79 201.094 1550.56 208.111C1549.35 214.963 1546.46 220.547 1541.89 224.86C1537.36 229.182 1531.35 233.876 1523.86 238.943L1500.15 255.007L1500.1 255.253C1501.23 255.367 1502.87 255.615 1505.05 255.999L1538.59 261.913C1540.85 262.311 1541.82 263.434 1541.49 265.28L1540.69 269.835C1540.36 271.681 1539.07 272.406 1536.81 272.008L1486.96 263.217Z" fill="#A2A2A2"/>
<path d="M1588.07 89.6336C1586.54 88.5582 1586.31 87.2525 1587.38 85.7166L1590.54 81.2112C1591.3 80.119 1592.54 79.2283 1594.24 78.539L1652.75 54.8048C1654.39 54.1257 1655.78 54.1805 1656.9 54.9692L1661.56 58.2314C1663.13 59.3308 1663.38 60.6484 1662.3 62.1843L1630.87 107.084L1639.62 113.214C1641.16 114.29 1641.39 115.595 1640.31 117.131L1637.66 120.92C1636.58 122.456 1635.29 122.698 1633.79 121.646L1624.99 115.48L1613.91 131.3C1612.83 132.836 1611.53 133.066 1609.99 131.991L1605.59 128.908C1604.05 127.833 1603.82 126.527 1604.9 124.991L1615.98 109.171L1588.07 89.6336ZM1600.81 86.041L1621.86 100.775L1642.47 71.3365C1643.18 70.3125 1643.94 69.3125 1644.72 68.3363L1644.62 68.2647L1600.81 86.041Z" fill="#A2A2A2"/>
<path d="M367.462 643.468C375.21 626.852 383.47 616.681 392.241 612.956C401.03 609.193 409.559 609.239 417.829 613.096C422.55 615.297 426.044 617.662 428.313 620.191C430.582 622.72 432.295 625.404 433.454 628.243C434.353 630.455 434.14 631.85 432.814 632.427L428.698 634.301C427.078 635.016 425.752 634.26 424.722 632.033C423.888 630.173 422.692 628.351 421.133 626.567C419.575 624.782 416.983 623.045 413.358 621.354C408.26 618.977 402.634 619.457 396.48 622.794C390.327 626.131 384.705 633.257 379.616 644.17L379.73 644.223C382.574 642.561 385.978 641.62 389.942 641.399C393.962 641.159 398.408 642.175 403.279 644.446C409.321 647.264 413.658 651.815 416.291 658.099C418.941 664.346 418.329 671.624 414.455 679.931C410.616 688.164 405.309 693.826 398.533 696.919C391.796 700.03 384.16 699.596 375.626 695.616C366.714 691.46 361.676 684.813 360.513 675.673C359.405 666.513 361.722 655.778 367.462 643.468ZM373.724 661.835C371.54 666.517 370.835 671.383 371.606 676.433C372.433 681.462 375.132 685.041 379.701 687.172C384.421 689.373 388.874 689.289 393.059 686.919C397.245 684.549 400.623 680.608 403.194 675.094C405.747 669.619 406.383 664.904 405.1 660.95C403.835 656.958 401.277 654.064 397.425 652.268C392.441 649.943 387.838 649.659 383.617 651.415C379.434 653.188 376.136 656.661 373.724 661.835Z" fill="#A2A2A2"/>
<path d="M572.82 304.089C570.952 303.926 570.1 302.91 570.263 301.042L570.742 295.563C570.859 294.235 571.482 292.847 572.613 291.398L611.414 241.59C612.499 240.179 613.727 239.534 615.097 239.654L620.762 240.149C622.672 240.317 623.545 241.334 623.381 243.202L618.604 297.806L629.251 298.737C631.119 298.901 631.971 299.916 631.808 301.784L631.405 306.392C631.241 308.259 630.246 309.113 628.42 308.954L617.711 308.017L616.028 327.256C615.864 329.124 614.849 329.976 612.981 329.812L607.626 329.344C605.758 329.181 604.906 328.165 605.069 326.297L606.753 307.058L572.82 304.089ZM582.056 294.608L607.646 296.847L610.778 261.046C610.887 259.801 611.038 258.559 611.229 257.321L611.105 257.311L582.056 294.608Z" fill="#A2A2A2"/>
<path d="M659.192 691.046C657.699 688.991 657.503 687.406 658.604 686.289L662.185 682.65C663.745 681.072 665.394 681.592 667.13 684.212C669.053 687.099 671.515 689.552 674.517 691.571C677.564 693.553 680.831 694.696 684.318 695.001C691.167 695.6 696.172 694.323 699.334 691.17C702.496 688.017 704.325 683.597 704.823 677.911C705.349 671.892 703.821 667.366 700.239 664.334C696.656 661.302 692.499 659.579 687.767 659.165L682.288 658.686C680.42 658.522 679.546 657.756 679.666 656.386L680.069 651.779C680.196 650.326 681.193 649.681 683.061 649.845L687.482 650.231C692.048 650.631 696.08 649.478 699.579 646.773C703.12 644.071 705.115 640.147 705.566 634.999C705.878 631.43 704.826 628.389 702.411 625.877C699.996 623.366 696.422 621.903 691.69 621.489C687.249 621.1 683.528 621.799 680.528 623.586C677.527 625.373 675.38 626.963 674.087 628.356C672.377 630.214 670.856 630.394 669.523 628.897L666.16 625.027C665.171 623.895 665.799 622.214 668.044 619.985C670.424 617.641 673.716 615.629 677.92 613.947C682.166 612.269 687.091 611.676 692.694 612.166C701.286 612.918 707.663 615.567 711.824 620.113C715.986 624.66 717.778 630.233 717.2 636.833C716.743 642.063 714.741 646.3 711.194 649.545C707.693 652.752 703.997 654.604 700.105 655.1L700.084 655.349C704.471 656.36 708.515 659.14 712.216 663.688C715.917 668.236 717.513 673.416 717.004 679.227C716.249 687.861 713.142 694.449 707.684 698.99C702.271 703.494 694.127 705.27 683.252 704.318C676.942 703.767 671.84 702.086 667.945 699.278C664.054 696.428 661.136 693.684 659.192 691.046Z" fill="#A2A2A2"/>
<path d="M38.5737 250.61C37.2479 249.284 37.2479 247.959 38.5737 246.633L42.4628 242.744C43.4056 241.801 44.7757 241.138 46.5729 240.755L108.312 227.541C110.05 227.158 111.406 227.452 112.378 228.425L116.4 232.446C117.755 233.802 117.77 235.142 116.444 236.468L77.6856 275.226L85.2428 282.784C86.5686 284.109 86.5686 285.435 85.2428 286.761L81.9724 290.031C80.6466 291.357 79.3355 291.372 78.0391 290.076L70.4377 282.474L56.7817 296.13C55.4559 297.456 54.1301 297.456 52.8043 296.13L49.0036 292.329C47.6777 291.004 47.6777 289.678 49.0036 288.352L62.6596 274.696L38.5737 250.61ZM51.7436 249.284L69.9074 267.448L95.3191 242.037C96.2029 241.153 97.1163 240.298 98.0591 239.473L97.9707 239.385L51.7436 249.284Z" fill="#A2A2A2"/>
<path d="M1152.7 115.616C1157.25 107.75 1163.01 102.561 1169.99 100.049C1177.01 97.5584 1184.6 98.6671 1192.75 103.375C1201.27 108.292 1205.68 115.361 1205.98 124.583C1206.35 133.789 1203.13 144.273 1196.34 156.037C1187.17 171.914 1178.05 181.344 1168.97 184.327C1159.9 187.274 1151.42 186.466 1143.52 181.904C1139.01 179.299 1135.73 176.639 1133.69 173.922C1131.65 171.204 1130.18 168.381 1129.27 165.452C1128.57 163.17 1128.9 161.799 1130.28 161.34L1134.54 159.832C1136.21 159.26 1137.47 160.129 1138.3 162.438C1138.97 164.363 1140 166.283 1141.4 168.196C1142.8 170.109 1145.23 172.066 1148.69 174.066C1153.56 176.878 1159.21 176.891 1165.63 174.102C1172.05 171.314 1178.27 164.706 1184.29 154.278L1184.19 154.215C1181.21 155.623 1177.71 156.272 1173.68 156.161C1169.71 156.035 1165.4 154.628 1160.74 151.94C1154.97 148.607 1151.04 143.713 1148.94 137.259C1146.87 130.769 1148.12 123.555 1152.7 115.616ZM1163.5 121.416C1160.48 126.649 1159.43 131.308 1160.34 135.395C1161.27 139.446 1163.58 142.534 1167.26 144.659C1172.02 147.409 1176.56 148.083 1180.89 146.681C1185.24 145.3 1188.85 142.137 1191.7 137.194C1194.29 132.719 1195.39 127.941 1195 122.859C1194.67 117.762 1192.32 113.953 1187.96 111.432C1183.45 108.828 1179 108.524 1174.63 110.52C1170.25 112.516 1166.54 116.148 1163.5 121.416Z" fill="#A2A2A2"/>
<path d="M1094.94 668.119C1095.54 661.332 1097.81 655.978 1101.76 652.058C1105.74 648.14 1111.25 646.489 1118.29 647.104C1125.63 647.747 1130.87 651.154 1134 657.325C1137.17 663.468 1138.3 671.614 1137.42 681.763C1136.22 695.461 1133 704.763 1127.78 709.669C1122.55 714.545 1116.53 716.685 1109.71 716.088C1105.82 715.748 1102.75 714.977 1100.5 713.777C1098.25 712.576 1096.36 711.124 1094.81 709.421C1093.61 708.092 1093.4 707.054 1094.19 706.308L1096.61 703.931C1097.57 703.011 1098.7 703.204 1100 704.51C1101.06 705.607 1102.37 706.584 1103.93 707.442C1105.48 708.299 1107.75 708.859 1110.74 709.12C1114.95 709.488 1118.79 707.707 1122.27 703.776C1125.75 699.846 1127.88 693.382 1128.67 684.386L1128.58 684.377C1127 686.278 1124.82 687.829 1122.05 689.03C1119.32 690.202 1115.94 690.612 1111.92 690.261C1106.94 689.825 1102.72 687.746 1099.25 684.023C1095.78 680.269 1094.35 674.967 1094.94 668.119ZM1104.12 668.639C1103.73 673.153 1104.49 676.655 1106.4 679.144C1108.32 681.601 1110.87 682.969 1114.04 683.247C1118.15 683.606 1121.45 682.625 1123.95 680.302C1126.47 677.982 1127.92 674.689 1128.29 670.424C1128.63 666.564 1127.86 662.968 1125.99 659.636C1124.15 656.275 1121.35 654.43 1117.58 654.101C1113.69 653.76 1110.57 654.962 1108.23 657.706C1105.89 660.45 1104.52 664.094 1104.12 668.639Z" fill="#A2A2A2"/>
<path d="M375.035 333.931C378.874 325.699 384.162 320.027 390.9 316.917C397.675 313.824 405.33 314.267 413.864 318.247C422.776 322.402 427.786 329.06 428.894 338.22C430.057 347.359 427.768 358.084 422.028 370.395C414.28 387.011 406.011 397.2 397.222 400.963C388.451 404.689 379.931 404.623 371.66 400.767C366.94 398.566 363.446 396.201 361.177 393.672C358.908 391.143 357.194 388.459 356.036 385.619C355.136 383.407 355.35 382.013 356.676 381.436L360.791 379.562C362.412 378.846 363.738 379.602 364.768 381.83C365.602 383.69 366.798 385.512 368.356 387.296C369.915 389.08 372.507 390.818 376.132 392.508C381.23 394.885 386.856 394.405 393.01 391.068C399.163 387.731 404.784 380.606 409.873 369.693L409.76 369.64C406.916 371.302 403.484 372.253 399.464 372.493C395.5 372.714 391.082 371.688 386.211 369.416C380.168 366.599 375.823 362.067 373.173 355.82C370.54 349.535 371.161 342.239 375.035 333.931ZM386.296 338.768C383.743 344.244 383.098 348.978 384.363 352.97C385.646 356.924 388.213 359.799 392.064 361.595C397.049 363.919 401.633 364.195 405.816 362.422C410.037 360.666 413.353 357.201 415.766 352.028C417.949 347.345 418.628 342.489 417.8 337.46C417.029 332.411 414.358 328.821 409.789 326.69C405.069 324.489 400.616 324.574 396.43 326.944C392.245 329.313 388.867 333.255 386.296 338.768Z" fill="#A2A2A2"/>
<path d="M225.775 671.075C223.241 670.898 221.9 670.029 221.753 668.467L221.267 663.385C221.061 661.175 222.519 660.247 225.642 660.601C229.089 660.984 232.551 660.674 236.028 659.673C239.504 658.612 242.48 656.844 244.955 654.369C249.816 649.508 252.056 644.853 251.673 640.404C251.29 635.955 249.08 631.712 245.043 627.676C240.771 623.404 236.323 621.666 231.697 622.461C227.071 623.257 223.079 625.334 219.72 628.692L215.831 632.582C214.505 633.907 213.356 634.084 212.384 633.112L209.114 629.842C208.082 628.81 208.23 627.632 209.556 626.306L212.693 623.168C215.934 619.927 217.643 616.097 217.82 611.678C218.026 607.229 216.303 603.178 212.649 599.524C210.115 596.991 207.11 595.841 203.634 596.077C200.157 596.313 196.739 598.11 193.381 601.469C190.228 604.621 188.372 607.921 187.812 611.368C187.252 614.815 187.09 617.482 187.326 619.367C187.65 621.872 186.81 623.153 184.807 623.212L179.68 623.301C178.178 623.33 177.294 621.769 177.029 618.616C176.763 615.287 177.338 611.471 178.752 607.17C180.196 602.839 182.906 598.685 186.884 594.707C192.983 588.608 199.111 585.426 205.269 585.161C211.426 584.896 216.848 587.106 221.532 591.79C225.245 595.503 227.204 599.76 227.41 604.562C227.616 609.306 226.659 613.328 224.537 616.627L224.714 616.804C228.309 614.094 233.037 612.783 238.901 612.871C244.764 612.959 249.758 615.066 253.882 619.191C260.011 625.319 263.06 631.933 263.031 639.034C263.001 646.076 259.127 653.456 251.407 661.175C246.929 665.654 242.362 668.482 237.707 669.66C233.023 670.81 229.045 671.281 225.775 671.075Z" fill="#A2A2A2"/>
<path d="M280.941 540.595C279.229 540.745 278.312 540.119 278.189 538.718L277.993 536.477C277.887 535.263 278.302 534.097 279.24 532.98L295.931 512.933C300.871 507.012 304.052 502.498 305.475 499.394C306.926 496.255 307.481 492.741 307.14 488.849C306.854 485.58 305.647 482.894 303.518 480.79C301.42 478.684 298.425 477.801 294.534 478.142C291.047 478.447 288.23 479.587 286.081 481.563C283.933 483.539 282.527 486.658 281.865 490.919C281.585 492.732 280.726 493.497 279.29 493.215L275.553 492.46C274.564 492.264 274.215 490.961 274.506 488.552C275.052 484.395 276.915 480.593 280.095 477.146C283.304 473.666 287.788 471.674 293.548 471.17C300.863 470.53 306.363 471.899 310.047 475.279C313.761 478.655 315.852 483.005 316.317 488.329C316.772 493.528 315.763 498.133 313.291 502.145C310.85 506.154 307.407 510.722 302.962 515.847L288.902 532.088L288.918 532.274C289.753 532.139 290.996 531.999 292.646 531.854L318.095 529.628C319.808 529.478 320.725 530.103 320.848 531.504L321.15 534.96C321.272 536.361 320.478 537.136 318.765 537.286L280.941 540.595Z" fill="#A2A2A2"/>
<path d="M471.743 211.943C470.342 212.066 469.581 211.427 469.458 210.026L469.156 206.57C469.033 205.169 469.672 204.408 471.073 204.285L510.018 200.878C511.419 200.755 512.181 201.394 512.303 202.795L512.585 206.017C512.672 207.014 512.21 208.183 511.198 209.527C505.59 217.138 501.279 225.405 498.264 234.327C495.246 243.217 494.179 252.721 495.065 262.839L495.449 267.228C495.571 268.629 494.932 269.391 493.531 269.513L489.282 269.885C487.881 270.008 487.119 269.369 486.997 267.968L486.756 265.213C485.772 253.974 487.04 243.904 490.559 235.001C494.075 226.066 498.668 217.43 504.337 209.092L504.329 208.998C503.401 209.142 502.47 209.255 501.536 209.337L471.743 211.943Z" fill="#A2A2A2"/>
<path d="M171.11 297.539C170.459 296.678 170.635 295.887 171.639 295.165C173.729 293.667 175.556 291.673 177.121 289.183C178.686 286.693 179.87 284.531 180.673 282.699C181.258 281.377 181.957 280.608 182.772 280.389L186.621 279.358C188.009 278.986 188.885 279.479 189.249 280.837L205.628 341.962C205.992 343.321 205.495 344.182 204.136 344.546L200.242 345.589C198.884 345.953 198.023 345.456 197.659 344.098L184.362 294.473C184.119 293.568 183.907 292.654 183.725 291.732L183.634 291.757C183.014 293.185 181.964 294.76 180.484 296.483C179.005 298.206 177.587 299.556 176.232 300.534C175.041 301.403 174.101 301.396 173.412 300.513L171.11 297.539Z" fill="#A2A2A2"/>
<path d="M1454.25 618.425C1452.55 618.723 1451.58 618.18 1451.34 616.795L1450.95 614.579C1450.74 613.379 1451.05 612.182 1451.89 610.987L1466.77 589.562C1471.17 583.232 1473.95 578.459 1475.09 575.242C1476.27 571.989 1476.51 568.439 1475.83 564.592C1475.27 561.361 1473.83 558.79 1471.52 556.88C1469.25 554.964 1466.19 554.346 1462.34 555.024C1458.9 555.632 1456.19 557.014 1454.22 559.169C1452.25 561.325 1451.12 564.554 1450.84 568.857C1450.71 570.687 1449.93 571.525 1448.47 571.369L1444.68 570.942C1443.68 570.833 1443.22 569.566 1443.3 567.14C1443.48 562.951 1445 559.001 1447.87 555.291C1450.77 551.544 1455.06 549.169 1460.75 548.165C1467.99 546.889 1473.58 547.775 1477.55 550.82C1481.54 553.86 1484 558.011 1484.93 563.274C1485.84 568.413 1485.23 573.089 1483.12 577.301C1481.04 581.508 1478.01 586.358 1474.03 591.852L1461.43 609.256L1461.47 609.44C1462.29 609.232 1463.51 608.985 1465.14 608.697L1490.3 604.261C1491.99 603.962 1492.96 604.505 1493.21 605.89L1493.81 609.306C1494.05 610.691 1493.33 611.533 1491.64 611.831L1454.25 618.425Z" fill="#A2A2A2"/>
<path d="M1460.29 43.9557C1459.09 30.258 1460.64 20.5547 1464.94 14.8457C1469.24 9.10554 1474.79 5.93724 1481.61 5.34077C1485.5 5.00031 1488.66 5.22605 1491.08 6.01797C1493.5 6.8099 1495.62 7.9106 1497.44 9.32008C1498.85 10.4198 1499.24 11.4057 1498.59 12.2777L1496.62 15.0381C1495.84 16.1105 1494.69 16.1165 1493.19 15.0561C1491.95 14.1607 1490.49 13.4258 1488.81 12.8514C1487.13 12.277 1484.79 12.1206 1481.8 12.382C1477.6 12.7497 1474.13 15.1711 1471.38 19.6461C1468.64 24.1212 1467.66 30.8572 1468.44 39.8541L1468.54 39.8459C1469.76 37.6998 1471.62 35.8119 1474.11 34.1822C1476.63 32.5187 1479.9 31.5113 1483.92 31.1599C1488.9 30.7241 1493.42 32.0537 1497.49 35.1485C1501.55 38.2123 1503.88 43.1686 1504.48 50.0174C1505.08 56.804 1503.75 62.4721 1500.51 67.0219C1497.3 71.569 1492.18 74.1502 1485.14 74.7658C1477.8 75.4086 1472.03 72.9799 1467.85 67.4798C1463.69 61.9458 1461.17 54.1044 1460.29 43.9557ZM1471.24 53.5374C1471.58 57.3976 1472.94 60.8228 1475.34 63.813C1477.76 66.7693 1480.86 68.0827 1484.62 67.7531C1488.52 67.4127 1491.38 65.688 1493.21 62.5792C1495.04 59.4704 1495.75 55.6435 1495.35 51.0983C1494.96 46.5843 1493.6 43.2836 1491.29 41.1963C1488.97 39.0778 1486.22 38.1574 1483.05 38.4352C1478.94 38.7947 1475.84 40.3361 1473.76 43.0593C1471.71 45.7797 1470.87 49.2724 1471.24 53.5374Z" fill="#A2A2A2"/>
<path d="M1460.29 43.9557C1459.09 30.258 1460.64 20.5547 1464.94 14.8457C1469.24 9.10554 1474.79 5.93724 1481.61 5.34077C1485.5 5.00031 1488.66 5.22605 1491.08 6.01797C1493.5 6.8099 1495.62 7.9106 1497.44 9.32008C1498.85 10.4198 1499.24 11.4057 1498.59 12.2777L1496.62 15.0381C1495.84 16.1105 1494.69 16.1165 1493.19 15.0561C1491.95 14.1607 1490.49 13.4258 1488.81 12.8514C1487.13 12.277 1484.79 12.1206 1481.8 12.382C1477.6 12.7497 1474.13 15.1711 1471.38 19.6461C1468.64 24.1212 1467.66 30.8572 1468.44 39.8541L1468.54 39.8459C1469.76 37.6998 1471.62 35.8119 1474.11 34.1822C1476.63 32.5187 1479.9 31.5113 1483.92 31.1599C1488.9 30.7241 1493.42 32.0537 1497.49 35.1485C1501.55 38.2123 1503.88 43.1686 1504.48 50.0174C1505.08 56.804 1503.75 62.4721 1500.51 67.0219C1497.3 71.569 1492.18 74.1502 1485.14 74.7658C1477.8 75.4086 1472.03 72.9799 1467.85 67.4798C1463.69 61.9458 1461.17 54.1044 1460.29 43.9557ZM1471.24 53.5374C1471.58 57.3976 1472.94 60.8228 1475.34 63.813C1477.76 66.7693 1480.86 68.0827 1484.62 67.7531C1488.52 67.4127 1491.38 65.688 1493.21 62.5792C1495.04 59.4704 1495.75 55.6435 1495.35 51.0983C1494.96 46.5843 1493.6 43.2836 1491.29 41.1963C1488.97 39.0778 1486.22 38.1574 1483.05 38.4352C1478.94 38.7947 1475.84 40.3361 1473.76 43.0593C1471.71 45.7797 1470.87 49.2724 1471.24 53.5374Z" fill="#A2A2A2"/>
<path d="M1613.26 360.731C1611.78 359.532 1611.33 358.422 1611.91 357.399L1613.79 354.067C1614.62 352.621 1615.91 352.678 1617.68 354.239C1619.63 355.957 1621.89 357.256 1624.46 358.137C1627.05 358.98 1629.64 359.175 1632.23 358.719C1637.3 357.823 1640.68 355.927 1642.36 353.029C1644.04 350.131 1644.51 346.574 1643.76 342.357C1642.98 337.895 1640.99 334.913 1637.81 333.412C1634.62 331.911 1631.28 331.47 1627.77 332.088L1623.71 332.804C1622.32 333.049 1621.54 332.663 1621.36 331.647L1620.76 328.231C1620.57 327.154 1621.17 326.494 1622.55 326.249L1625.83 325.671C1629.21 325.075 1631.91 323.457 1633.92 320.817C1635.96 318.173 1636.64 314.943 1635.97 311.126C1635.5 308.48 1634.15 306.481 1631.92 305.13C1629.68 303.78 1626.81 303.413 1623.3 304.032C1620 304.613 1617.44 305.842 1615.62 307.719C1613.79 309.596 1612.54 311.164 1611.88 312.424C1611 314.102 1609.93 314.528 1608.68 313.702L1605.49 311.551C1604.55 310.923 1604.68 309.583 1605.87 307.533C1607.14 305.373 1609.14 303.276 1611.86 301.242C1614.61 299.202 1618.06 297.816 1622.21 297.083C1628.59 295.96 1633.72 296.641 1637.62 299.127C1641.51 301.613 1643.89 305.303 1644.76 310.196C1645.44 314.074 1644.81 317.532 1642.87 320.572C1640.96 323.575 1638.64 325.633 1635.92 326.748L1635.95 326.933C1639.32 326.814 1642.79 328.043 1646.36 330.619C1649.92 333.196 1652.08 336.638 1652.84 340.947C1653.97 347.348 1653 352.723 1649.93 357.073C1646.88 361.386 1641.33 364.254 1633.26 365.676C1628.58 366.501 1624.56 366.274 1621.2 364.995C1617.82 363.686 1615.18 362.264 1613.26 360.731Z" fill="#A2A2A2"/>
<path d="M1049.95 258.012C1048.63 256.559 1048.39 255.388 1049.22 254.5L1051.89 251.678C1052.86 250.652 1054.13 250.933 1055.68 252.523C1056.61 253.477 1058.21 254.764 1060.49 256.384C1062.76 258.005 1065.6 258.666 1068.99 258.37C1073.44 257.98 1076.67 256.318 1078.67 253.382C1080.7 250.444 1081.52 246.717 1081.13 242.203C1080.75 237.938 1079.49 234.661 1077.35 232.37C1075.2 230.08 1072.2 229.103 1068.34 229.441C1065.94 229.651 1063.97 230.059 1062.42 230.664C1060.88 231.27 1059.31 232.395 1057.73 234.039C1056.64 235.17 1055.44 235.793 1054.13 235.907L1051.94 236.099C1050.54 236.222 1049.77 235.583 1049.65 234.182L1046.76 201.167C1046.64 199.766 1047.28 199.005 1048.68 198.882L1080.9 196.063C1082.3 195.941 1083.06 196.58 1083.19 197.981L1083.49 201.436C1083.61 202.837 1082.97 203.599 1081.57 203.721L1055.47 206.005L1057.08 224.45C1057.16 225.384 1057.21 226.321 1057.23 227.26L1057.42 227.244C1059.04 225.628 1060.99 224.438 1063.27 223.673C1065.56 222.909 1067.7 222.439 1069.69 222.265C1075.48 221.758 1080.22 223.288 1083.92 226.854C1087.62 230.42 1089.75 235.332 1090.3 241.589C1090.89 248.407 1089.34 253.923 1085.63 258.137C1081.95 262.349 1076.64 264.759 1069.7 265.366C1064.62 265.81 1060.44 265.125 1057.14 263.312C1053.87 261.464 1051.48 259.698 1049.95 258.012Z" fill="#A2A2A2"/>
<path d="M572.256 452.731C570.775 451.532 570.326 450.422 570.907 449.399L572.794 446.067C573.618 444.621 574.914 444.678 576.68 446.239C578.633 447.957 580.893 449.256 583.46 450.137C586.052 450.981 588.641 451.175 591.226 450.719C596.304 449.823 599.682 447.927 601.361 445.029C603.039 442.131 603.507 438.574 602.763 434.357C601.976 429.895 599.991 426.913 596.807 425.412C593.623 423.911 590.277 423.47 586.768 424.088L582.706 424.805C581.321 425.049 580.539 424.663 580.36 423.647L579.758 420.231C579.568 419.154 580.165 418.494 581.55 418.249L584.828 417.671C588.213 417.075 590.91 415.457 592.92 412.817C594.961 410.173 595.645 406.943 594.972 403.127C594.505 400.48 593.153 398.481 590.916 397.13C588.678 395.78 585.806 395.414 582.297 396.032C579.004 396.613 576.444 397.842 574.617 399.719C572.791 401.596 571.544 403.164 570.878 404.424C570 406.102 568.932 406.528 567.676 405.702L564.489 403.551C563.553 402.923 563.681 401.583 564.875 399.533C566.144 397.373 568.138 395.276 570.858 393.242C573.608 391.202 577.06 389.816 581.215 389.083C587.585 387.96 592.719 388.641 596.616 391.127C600.513 393.613 602.893 397.303 603.756 402.196C604.44 406.074 603.812 409.532 601.873 412.572C599.959 415.575 597.641 417.633 594.918 418.748L594.95 418.933C598.325 418.814 601.794 420.043 605.358 422.619C608.922 425.196 611.084 428.638 611.844 432.947C612.972 439.348 612 444.723 608.928 449.073C605.881 453.386 600.325 456.254 592.262 457.676C587.584 458.501 583.562 458.274 580.195 456.995C576.823 455.686 574.176 454.264 572.256 452.731Z" fill="#A2A2A2"/>
<path d="M1042.26 79.7309C1040.78 78.5323 1040.33 77.4216 1040.91 76.3989L1042.79 73.0674C1043.62 71.6211 1044.91 71.6783 1046.68 73.239C1048.63 74.9572 1050.89 76.2564 1053.46 77.1365C1056.05 77.9805 1058.64 78.1746 1061.23 77.7187C1066.3 76.8234 1069.68 74.9267 1071.36 72.0287C1073.04 69.1307 1073.51 65.5736 1072.76 61.3574C1071.98 56.8949 1069.99 53.9132 1066.81 52.412C1063.62 50.9109 1060.28 50.4696 1056.77 51.0882L1052.71 51.8045C1051.32 52.0487 1050.54 51.663 1050.36 50.6474L1049.76 47.2314C1049.57 46.1542 1050.17 45.4936 1051.55 45.2494L1054.83 44.6715C1058.21 44.0745 1060.91 42.4565 1062.92 39.8175C1064.96 37.173 1065.64 33.9426 1064.97 30.1265C1064.5 27.4798 1063.15 25.4811 1060.92 24.1303C1058.68 22.7796 1055.81 22.4135 1052.3 23.0321C1049 23.6128 1046.44 24.8416 1044.62 26.7186C1042.79 28.5955 1041.54 30.164 1040.88 31.4238C1040 33.1018 1038.93 33.528 1037.68 32.7023L1034.49 30.5513C1033.55 29.923 1033.68 28.5834 1034.87 26.5326C1036.14 24.3731 1038.14 22.2762 1040.86 20.2418C1043.61 18.202 1047.06 16.8159 1051.21 16.0833C1057.59 14.96 1062.72 15.6414 1066.62 18.1274C1070.51 20.6134 1072.89 24.3031 1073.76 29.1963C1074.44 33.074 1073.81 36.5324 1071.87 39.5716C1069.96 42.5746 1067.64 44.6334 1064.92 45.7482L1064.95 45.9328C1068.32 45.8138 1071.79 47.0426 1075.36 49.6191C1078.92 52.1956 1081.08 55.6381 1081.84 59.9466C1082.97 66.3479 1082 71.7233 1078.93 76.0729C1075.88 80.3864 1070.33 83.254 1062.26 84.6757C1057.58 85.5005 1053.56 85.2737 1050.2 83.9952C1046.82 82.6859 1044.18 81.2645 1042.26 79.7309Z" fill="#A2A2A2"/>
<path d="M1353.8 272.521C1355.65 268.556 1358.45 265.76 1362.21 264.133C1365.98 262.479 1369.21 261.915 1371.89 262.443L1371.95 262.315C1369.73 260.279 1368.2 257.706 1367.38 254.597C1366.55 251.488 1367 248.093 1368.72 244.411C1370.89 239.738 1374.32 236.785 1379 235.553C1383.69 234.292 1388.73 234.916 1394.11 237.426C1399.49 239.935 1403.21 243.392 1405.26 247.795C1407.32 252.171 1407.26 256.695 1405.08 261.368C1403.36 265.05 1400.99 267.562 1397.95 268.903C1394.92 270.216 1391.91 270.676 1388.93 270.282L1388.89 270.367C1391.02 272.084 1392.72 274.946 1393.99 278.952C1395.27 282.929 1394.99 286.9 1393.14 290.865C1390.5 296.53 1386.8 300.322 1382.04 302.241C1377.31 304.174 1371.55 303.555 1364.75 300.386C1357.95 297.216 1353.76 293.192 1352.17 288.315C1350.61 283.45 1351.16 278.185 1353.8 272.521ZM1362 276.554C1360.15 280.519 1359.72 283.991 1360.71 286.97C1361.7 289.949 1364.04 292.296 1367.72 294.013C1371.4 295.73 1374.69 296.004 1377.58 294.834C1380.5 293.678 1382.88 291.118 1384.73 287.152C1386.18 284.037 1386.46 280.821 1385.56 277.504C1384.66 274.187 1382.43 271.704 1378.89 270.053C1375.35 268.402 1372.01 268.291 1368.86 269.719C1365.74 271.16 1363.45 273.438 1362 276.554ZM1376.7 248.135C1375.38 250.967 1375.06 253.765 1375.74 256.529C1376.44 259.306 1378.56 261.52 1382.1 263.17C1385.64 264.821 1388.69 265.018 1391.24 263.76C1393.82 262.515 1395.77 260.476 1397.09 257.644C1398.15 255.378 1398.34 252.933 1397.67 250.309C1397 247.685 1394.82 245.515 1391.14 243.798C1387.46 242.081 1384.39 241.808 1381.95 242.98C1379.51 244.151 1377.76 245.869 1376.7 248.135Z" fill="#A2A2A2"/>
<path d="M1210.35 468.996C1214.97 459.083 1219.93 452 1225.22 447.745C1230.53 443.461 1237.01 443.103 1244.65 446.668C1252.3 450.234 1256.19 455.427 1256.32 462.246C1256.46 469.036 1254.22 477.388 1249.6 487.301C1244.98 497.214 1240.01 504.312 1234.71 508.595C1229.41 512.85 1222.94 513.194 1215.29 509.629C1207.65 506.063 1203.75 500.884 1203.61 494.094C1203.48 487.275 1205.72 478.909 1210.35 468.996ZM1218.25 472.681C1214.55 480.611 1212.33 487.145 1211.59 492.282C1210.86 497.391 1213.05 501.134 1218.15 503.511C1223.24 505.888 1227.52 505.156 1230.96 501.315C1234.42 497.446 1238 491.546 1241.7 483.616C1245.4 475.686 1247.61 469.166 1248.34 464.058C1249.08 458.92 1246.9 455.163 1241.8 452.786C1236.7 450.409 1232.42 451.155 1228.96 455.024C1225.52 458.865 1221.95 464.751 1218.25 472.681Z" fill="#A2A2A2"/>
<path d="M857.673 105.769C856.265 104.783 855.965 103.714 856.771 102.562L858.062 100.719C858.761 99.7205 859.828 99.0947 861.265 98.8414L886.937 94.2138C894.528 92.8528 899.866 91.4404 902.951 89.9765C906.079 88.5048 908.764 86.1691 911.004 82.9693C912.886 80.2815 913.688 77.4476 913.41 74.4676C913.157 71.5055 911.43 68.9042 908.23 66.6637C905.363 64.6561 902.472 63.7187 899.556 63.8515C896.64 63.9842 893.559 65.4699 890.312 68.3086C888.932 69.5168 887.782 69.5512 886.863 68.4118L884.487 65.4315C883.855 64.6455 884.424 63.4231 886.196 61.7644C889.287 58.9308 893.158 57.2161 897.809 56.6202C902.505 56.0167 907.22 57.3729 911.956 60.6889C917.972 64.9011 921.304 69.4854 921.954 74.4419C922.629 79.4162 921.434 84.0921 918.369 88.4694C915.376 92.7444 911.643 95.624 907.17 97.1082C902.723 98.6104 897.149 99.896 890.449 100.965L869.24 104.368L869.132 104.522C869.859 104.955 870.901 105.646 872.258 106.596L893.185 121.249C894.593 122.235 894.893 123.304 894.087 124.456L892.097 127.297C891.29 128.449 890.183 128.532 888.775 127.547L857.673 105.769Z" fill="#A2A2A2"/>
<path d="M216.827 78.0668C214.927 67.2955 214.926 58.6487 216.822 52.1266C218.713 45.5737 223.813 41.5647 232.122 40.0996C240.432 38.6344 246.595 40.6573 250.613 46.1683C254.626 51.6485 257.582 59.7743 259.481 70.5457C261.38 81.317 261.385 89.9791 259.494 96.532C257.598 103.054 252.495 107.048 244.185 108.513C235.876 109.978 229.715 107.971 225.703 102.49C221.685 96.9793 218.726 88.8381 216.827 78.0668ZM225.413 76.5528C226.932 85.1699 228.862 91.7948 231.202 96.4276C233.537 101.03 237.474 102.842 243.013 101.865C248.553 100.889 251.633 97.8388 252.252 92.7159C252.867 87.5621 252.414 80.6767 250.895 72.0597C249.375 63.4426 247.448 56.8331 245.114 52.231C242.774 47.5982 238.834 45.7702 233.294 46.747C227.755 47.7238 224.678 50.789 224.064 55.9428C223.444 61.0657 223.894 67.9357 225.413 76.5528Z" fill="#A2A2A2"/>
<path d="M559.827 610.067C557.927 599.295 557.926 590.649 559.822 584.127C561.713 577.574 566.813 573.565 575.122 572.1C583.432 570.634 589.595 572.657 593.613 578.168C597.626 583.649 600.582 591.774 602.481 602.546C604.38 613.317 604.385 621.979 602.494 628.532C600.598 635.054 595.495 639.048 587.185 640.513C578.876 641.978 572.715 639.971 568.703 634.49C564.685 628.979 561.726 620.838 559.827 610.067ZM568.413 608.553C569.932 617.17 571.862 623.795 574.202 628.428C576.537 633.03 580.474 634.842 586.013 633.865C591.553 632.889 594.633 629.839 595.252 624.716C595.867 619.562 595.414 612.677 593.895 604.06C592.375 595.443 590.448 588.833 588.114 584.231C585.774 579.598 581.834 577.77 576.294 578.747C570.755 579.724 567.678 582.789 567.064 587.943C566.444 593.066 566.894 599.936 568.413 608.553Z" fill="#A2A2A2"/>
<path d="M749.413 89.9482C747.545 90.1116 746.529 89.2594 746.366 87.3916L745.886 81.9125C745.77 80.5842 746.143 79.1086 747.005 77.4857L776.567 21.6968C777.391 20.119 778.488 19.2702 779.858 19.1503L785.524 18.6546C787.433 18.4876 788.47 19.338 788.633 21.2059L793.41 75.8098L804.057 74.8783C805.925 74.7149 806.941 75.5671 807.104 77.435L807.507 82.0424C807.671 83.9102 806.839 84.9241 805.013 85.0839L794.304 86.0208L795.987 105.26C796.15 107.128 795.298 108.143 793.43 108.307L788.076 108.775C786.208 108.939 785.192 108.086 785.029 106.219L783.346 86.9795L749.413 89.9482ZM756.862 79.0073L782.452 76.7685L779.32 40.9677C779.211 39.7225 779.144 38.4736 779.118 37.2211L778.993 37.232L756.862 79.0073Z" fill="#A2A2A2"/>
<path d="M1208.09 290.716C1209.29 277.018 1212.5 267.731 1217.73 262.856C1222.96 257.949 1228.98 255.794 1235.8 256.39C1239.69 256.731 1242.76 257.501 1245.01 258.702C1247.26 259.902 1249.15 261.354 1250.7 263.058C1251.9 264.386 1252.11 265.424 1251.32 266.171L1248.9 268.547C1247.94 269.467 1246.81 269.274 1245.52 267.969C1244.45 266.872 1243.14 265.894 1241.58 265.037C1240.03 264.179 1237.76 263.619 1234.77 263.358C1230.56 262.99 1226.72 264.772 1223.24 268.702C1219.76 272.632 1217.63 279.096 1216.84 288.093L1216.93 288.101C1218.51 286.2 1220.67 284.664 1223.41 283.491C1226.18 282.291 1229.57 281.866 1233.59 282.218C1238.57 282.653 1242.79 284.748 1246.26 288.502C1249.73 292.225 1251.16 297.511 1250.57 304.36C1249.97 311.146 1247.68 316.499 1243.7 320.416C1239.75 324.337 1234.26 325.99 1227.22 325.374C1219.88 324.731 1214.62 321.338 1211.46 315.196C1208.33 309.024 1207.21 300.864 1208.09 290.716ZM1217.22 302.054C1216.88 305.914 1217.63 309.525 1219.47 312.885C1221.34 316.217 1224.16 318.048 1227.93 318.378C1231.82 318.718 1234.94 317.517 1237.28 314.773C1239.62 312.029 1240.99 308.384 1241.39 303.839C1241.78 299.325 1241.02 295.839 1239.1 293.382C1237.19 290.893 1234.64 289.509 1231.47 289.231C1227.36 288.872 1224.04 289.852 1221.52 292.172C1219.02 294.495 1217.59 297.789 1217.22 302.054Z" fill="#A2A2A2"/>
<path d="M801.39 645.429C800.809 643.554 801.083 642.39 802.212 641.937L805.825 640.508C807.144 639.99 808.17 640.78 808.904 642.876C809.344 644.133 810.253 645.977 811.63 648.407C813.006 650.837 815.295 652.635 818.496 653.8C822.695 655.328 826.322 655.185 829.377 653.37C832.462 651.566 834.779 648.536 836.328 644.278C837.793 640.254 838.037 636.752 837.06 633.769C836.084 630.787 833.775 628.633 830.134 627.307C827.873 626.484 825.913 626.021 824.255 625.916C822.597 625.811 820.704 626.17 818.576 626.992C817.108 627.554 815.757 627.611 814.523 627.163L812.453 626.409C811.132 625.928 810.711 625.027 811.192 623.705L822.527 592.563C823.008 591.242 823.909 590.822 825.231 591.303L855.624 602.365C856.945 602.846 857.366 603.747 856.885 605.069L855.698 608.328C855.217 609.65 854.316 610.07 852.995 609.589L828.372 600.627L822.039 618.026C821.718 618.907 821.368 619.777 820.989 620.637L821.165 620.701C823.312 619.919 825.583 619.665 827.978 619.938C830.372 620.211 832.509 620.689 834.389 621.373C839.851 623.361 843.505 626.753 845.351 631.549C847.197 636.345 847.046 641.694 844.898 647.596C842.557 654.027 838.815 658.368 833.672 660.62C828.559 662.883 822.728 662.822 816.179 660.439C811.393 658.697 807.889 656.308 805.669 653.271C803.489 650.216 802.062 647.602 801.39 645.429Z" fill="#A2A2A2"/>
<path d="M48.9277 692.867C42.0527 680.959 39.3574 671.509 40.8418 664.518C42.3106 657.5 46.0084 652.279 51.9353 648.857C55.3182 646.904 58.2746 645.775 60.8043 645.469C63.334 645.163 65.7203 645.265 67.9629 645.774C69.709 646.174 70.4739 646.905 70.2577 647.968L69.6388 651.302C69.381 652.606 68.3463 653.095 66.5347 652.769C65.0334 652.481 63.3994 652.433 61.6327 652.623C59.866 652.813 57.6837 653.658 55.0856 655.158C51.432 657.267 49.3068 660.93 48.7098 666.146C48.1129 671.362 50.0722 677.881 54.5878 685.702L54.669 685.655C54.8713 683.193 55.7575 680.696 57.3276 678.166C58.9093 675.593 61.4457 673.299 64.9368 671.283C69.267 668.783 73.9287 668.076 78.9221 669.163C83.8999 670.222 88.1076 673.728 91.5451 679.682C94.9513 685.582 96.1473 691.279 95.1329 696.772C94.1457 702.249 90.5939 706.754 84.4776 710.285C78.0906 713.972 71.8395 714.208 65.7241 710.99C59.6202 707.731 54.0214 701.689 48.9277 692.867ZM62.9056 696.921C64.8431 700.277 67.5288 702.804 70.9629 704.502C74.4084 706.157 77.7685 706.039 81.0431 704.149C84.426 702.196 86.2897 699.424 86.6342 695.833C86.9787 692.242 86.0103 688.471 83.7291 684.52C81.4635 680.595 78.8402 678.177 75.8593 677.264C72.8627 676.324 69.9842 676.65 67.2237 678.244C63.6514 680.307 61.4967 683.012 60.7596 686.36C60.0496 689.693 60.7649 693.213 62.9056 696.921Z" fill="#A2A2A2"/>
<path d="M1044.52 546.607C1043.39 542.381 1043.74 538.437 1045.57 534.775C1047.4 531.083 1049.51 528.577 1051.9 527.255L1051.87 527.119C1048.86 526.988 1046.03 525.997 1043.4 524.146C1040.77 522.295 1038.93 519.408 1037.88 515.484C1036.54 510.503 1037.27 506.038 1040.06 502.087C1042.85 498.106 1047.11 495.347 1052.84 493.81C1058.58 492.273 1063.65 492.533 1068.05 494.589C1072.44 496.615 1075.3 500.118 1076.64 505.099C1077.69 509.023 1077.48 512.475 1076.02 515.456C1074.54 518.407 1072.53 520.692 1069.99 522.312L1070.02 522.402C1072.75 522.349 1075.89 523.448 1079.44 525.7C1082.98 527.922 1085.32 531.147 1086.45 535.372C1088.07 541.409 1087.67 546.692 1085.26 551.22C1082.88 555.74 1078.07 558.971 1070.82 560.912C1063.58 562.853 1057.78 562.465 1053.43 559.749C1049.11 557.025 1046.14 552.644 1044.52 546.607ZM1053.4 544.422C1054.53 548.648 1056.43 551.584 1059.11 553.229C1061.78 554.875 1065.08 555.172 1069 554.12C1072.93 553.069 1075.62 551.166 1077.08 548.413C1078.57 545.651 1078.75 542.157 1077.62 537.931C1076.73 534.611 1074.88 531.97 1072.05 530.009C1069.23 528.048 1065.93 527.572 1062.16 528.584C1058.39 529.595 1055.75 531.659 1054.26 534.777C1052.8 537.887 1052.51 541.102 1053.4 544.422ZM1046.39 513.203C1047.2 516.222 1048.75 518.572 1051.05 520.254C1053.37 521.928 1056.42 522.26 1060.19 521.249C1063.97 520.237 1066.43 518.43 1067.57 515.826C1068.75 513.213 1068.93 510.398 1068.12 507.38C1067.48 504.965 1066.05 502.969 1063.85 501.391C1061.65 499.813 1058.59 499.55 1054.66 500.602C1050.74 501.653 1048.22 503.413 1047.1 505.88C1045.98 508.347 1045.74 510.788 1046.39 513.203Z" fill="#A2A2A2"/>
<path d="M1286.36 77.7832C1284.23 78.7737 1282.67 78.2069 1281.68 76.0827L1279.24 70.8431C1278.25 68.719 1278.82 67.1616 1280.94 66.1711L1339.99 38.6349C1342.12 37.6444 1343.67 38.2112 1344.67 40.3354L1346.94 45.2209C1347.65 46.7314 1347.59 48.827 1346.77 51.5075C1342.33 66.625 1340.29 82.0295 1340.65 97.7211C1340.99 113.365 1344.74 128.858 1351.89 144.199L1355 150.855C1355.99 152.979 1355.42 154.536 1353.3 155.527L1346.85 158.532C1344.73 159.522 1343.17 158.955 1342.18 156.831L1340.23 152.654C1332.29 135.613 1328.53 119.118 1328.97 103.169C1329.38 87.1723 1331.65 71.0285 1335.78 54.7373L1335.71 54.5957C1334.34 55.3504 1332.95 56.058 1331.53 56.7183L1286.36 77.7832Z" fill="#A2A2A2"/>
<path d="M50.5851 478.193C49.6159 475.069 50.0726 473.129 51.9551 472.373L57.9764 469.992C60.1748 469.13 61.8854 470.445 63.108 473.938C63.8416 476.035 65.3558 479.108 67.6507 483.158C69.9456 487.208 73.7604 490.203 79.0951 492.145C86.0939 494.692 92.139 494.454 97.2304 491.429C102.371 488.423 106.232 483.371 108.815 476.275C111.256 469.57 111.663 463.732 110.035 458.761C108.408 453.79 104.56 450.2 98.4914 447.991C94.7229 446.619 91.4569 445.846 88.6937 445.672C85.9304 445.498 82.7753 446.095 79.2285 447.465C76.7808 448.403 74.5292 448.498 72.4736 447.75L69.0232 446.494C66.8208 445.692 66.1204 444.19 66.922 441.988L85.8133 390.085C86.6149 387.882 88.1169 387.182 90.3193 387.983L140.975 406.42C143.177 407.222 143.877 408.724 143.076 410.926L141.098 416.359C140.297 418.561 138.795 419.262 136.592 418.46L95.5543 403.524L84.9998 432.522C84.4654 433.99 83.882 435.441 83.2497 436.873L83.5434 436.98C87.1214 435.677 90.9061 435.254 94.8974 435.709C98.8887 436.164 102.451 436.961 105.583 438.101C114.686 441.415 120.776 447.068 123.853 455.06C126.93 463.053 126.678 471.968 123.098 481.806C119.196 492.524 112.96 499.76 104.389 503.513C95.8664 507.284 86.1481 507.183 75.2339 503.21C67.2563 500.307 61.4172 496.325 57.7164 491.264C54.0825 486.173 51.7054 481.816 50.5851 478.193Z" fill="#A2A2A2"/>
<path d="M550.45 139.027C549.312 136.063 549.588 134.085 551.28 133.094L556.78 129.858C559.175 128.457 560.997 129.619 562.246 133.344C563.633 137.451 565.812 141.21 568.784 144.619C571.822 147.998 575.397 150.435 579.508 151.931C587.583 154.87 594.04 154.948 598.878 152.164C603.715 149.38 607.354 144.635 609.795 137.93C612.378 130.833 611.997 124.875 608.652 120.055C605.307 115.235 600.845 111.809 595.266 109.779L588.805 107.427C586.603 106.626 585.796 105.417 586.384 103.802L588.361 98.3696C588.984 96.6567 590.397 96.201 592.6 97.0026L597.812 98.8997C603.196 100.859 608.438 100.772 613.538 98.6374C618.687 96.5208 622.366 92.4281 624.574 86.3592C626.106 82.1502 625.821 78.1386 623.717 74.3245C621.613 70.5105 617.772 67.5881 612.192 65.5573C606.956 63.6513 602.237 63.2917 598.036 64.4785C593.835 65.6654 590.729 66.8904 588.717 68.1535C586.051 69.8436 584.155 69.5694 583.03 67.3308L580.222 61.5698C579.395 59.8831 580.697 58.0568 584.128 56.091C587.76 54.0319 592.386 52.6671 598.006 51.9969C603.675 51.3444 609.814 52.2206 616.421 54.6254C626.552 58.3129 633.394 63.5745 636.947 70.4104C640.501 77.2463 640.861 84.5552 638.029 92.337C635.784 98.5038 631.996 102.972 626.665 105.743C621.4 108.483 616.338 109.522 611.479 108.862L611.372 109.156C616.342 111.796 620.325 116.461 623.322 123.15C626.319 129.839 626.571 136.609 624.077 143.461C620.372 153.641 614.489 160.59 606.43 164.307C598.437 167.994 588.029 167.504 575.206 162.836C567.767 160.129 562.15 156.449 558.356 151.798C554.579 147.098 551.944 142.841 550.45 139.027Z" fill="#A2A2A2"/>
<path d="M483.34 521.211C480.59 519.441 479.692 517.661 480.649 515.872L483.731 510.177C484.86 508.103 487.016 508.012 490.198 509.902C492.108 511.036 495.243 512.417 499.604 514.044C503.965 515.671 508.813 515.514 514.148 513.573C521.147 511.025 525.624 506.957 527.581 501.367C529.586 495.76 529.297 489.408 526.714 482.311C524.274 475.606 520.832 470.873 516.391 468.111C511.949 465.349 506.694 465.072 500.625 467.281C496.856 468.653 493.858 470.16 491.629 471.802C489.4 473.445 487.367 475.931 485.53 479.26C484.258 481.552 482.595 483.072 480.539 483.82L477.089 485.076C474.886 485.878 473.384 485.177 472.583 482.975L453.691 431.071C452.89 428.869 453.59 427.367 455.793 426.565L506.448 408.128C508.65 407.327 510.152 408.027 510.954 410.23L512.931 415.662C513.733 417.865 513.032 419.367 510.83 420.168L469.792 435.105L480.346 464.103C480.881 465.571 481.366 467.058 481.803 468.561L482.096 468.455C484 465.157 486.627 462.399 489.977 460.182C493.327 457.965 496.568 456.287 499.7 455.147C508.804 451.833 517.102 452.249 524.597 456.394C532.092 460.539 537.629 467.53 541.21 477.368C545.111 488.086 544.985 497.638 540.831 506.022C536.727 514.389 529.217 520.559 518.303 524.531C510.325 527.435 503.293 528.138 497.205 526.64C491.148 525.075 486.527 523.266 483.34 521.211Z" fill="#A2A2A2"/>
<path d="M1106.24 424.364C1104.21 425.536 1102.61 425.107 1101.44 423.078L1098 417.124C1097.17 415.68 1096.81 413.812 1096.93 411.518L1100.95 332.698C1101.05 330.475 1101.84 328.934 1103.33 328.075L1109.49 324.52C1111.56 323.322 1113.19 323.738 1114.36 325.768L1148.62 385.104L1160.18 378.425C1162.21 377.253 1163.82 377.682 1164.99 379.711L1167.88 384.718C1169.05 386.748 1168.64 388.336 1166.66 389.482L1155.02 396.2L1167.09 417.107C1168.26 419.136 1167.83 420.737 1165.8 421.909L1159.99 425.269C1157.96 426.44 1156.36 426.011 1155.18 423.982L1143.11 403.075L1106.24 424.364ZM1108.9 408.034L1136.71 391.979L1114.25 353.076C1113.47 351.723 1112.73 350.344 1112.04 348.938L1111.9 349.016L1108.9 408.034Z" fill="#A2A2A2"/>
<path d="M330.831 233.526C327.185 227.211 326.048 220.711 327.42 214.025C328.766 207.294 331.083 202.348 334.37 199.187L334.253 198.984C329.348 200.072 324.378 199.694 319.344 197.849C314.31 196.005 310.1 192.15 306.714 186.287C302.418 178.844 301.664 171.341 304.453 163.776C307.217 156.167 312.883 149.888 321.453 144.94C330.023 139.992 338.294 138.224 346.266 139.636C354.212 141.002 360.333 145.407 364.63 152.849C368.015 158.713 369.171 164.36 368.097 169.792C366.997 175.178 364.749 179.723 361.355 183.427L361.433 183.562C365.814 182.296 371.346 182.711 378.028 184.806C384.685 186.857 389.836 191.04 393.482 197.354C398.691 206.375 400.331 215.051 398.405 223.38C396.523 231.683 390.169 238.96 379.344 245.21C368.519 251.46 359.018 253.337 350.841 250.841C342.709 248.319 336.039 242.547 330.831 233.526ZM344.18 226.18C347.826 232.494 352.156 236.4 357.169 237.895C362.182 239.391 367.621 238.447 373.485 235.061C379.348 231.676 382.863 227.451 384.029 222.388C385.241 217.298 384.023 211.596 380.377 205.281C377.513 200.32 373.386 196.869 367.996 194.929C362.606 192.989 357.092 193.647 351.453 196.902C345.815 200.157 342.466 204.617 341.406 210.28C340.391 215.918 341.316 221.218 344.18 226.18ZM319.434 178.943C322.038 183.453 325.55 186.568 329.97 188.286C334.435 189.978 339.487 189.196 345.125 185.941C350.763 182.686 353.944 178.715 354.666 174.028C355.433 169.315 354.514 164.703 351.91 160.193C349.827 156.584 346.672 153.985 342.447 152.396C338.221 150.806 333.176 151.704 327.313 155.089C321.449 158.474 318.149 162.394 317.413 166.849C316.677 171.303 317.351 175.334 319.434 178.943Z" fill="#A2A2A2"/>
<path d="M1269.45 657.027C1268.31 654.063 1268.59 652.085 1270.28 651.094L1275.78 647.858C1278.17 646.457 1280 647.619 1281.25 651.344C1282.63 655.451 1284.81 659.21 1287.78 662.619C1290.82 665.998 1294.4 668.435 1298.51 669.931C1306.58 672.87 1313.04 672.948 1317.88 670.164C1322.72 667.38 1326.35 662.635 1328.79 655.93C1331.38 648.833 1331 642.875 1327.65 638.055C1324.31 633.235 1319.85 629.809 1314.27 627.779L1307.81 625.427C1305.6 624.626 1304.8 623.417 1305.38 621.802L1307.36 616.37C1307.98 614.657 1309.4 614.201 1311.6 615.003L1316.81 616.9C1322.2 618.859 1327.44 618.772 1332.54 616.637C1337.69 614.521 1341.37 610.428 1343.57 604.359C1345.11 600.15 1344.82 596.139 1342.72 592.325C1340.61 588.51 1336.77 585.588 1331.19 583.557C1325.96 581.651 1321.24 581.292 1317.04 582.479C1312.83 583.665 1309.73 584.89 1307.72 586.154C1305.05 587.844 1303.16 587.569 1302.03 585.331L1299.22 579.57C1298.39 577.883 1299.7 576.057 1303.13 574.091C1306.76 572.032 1311.39 570.667 1317.01 569.997C1322.68 569.344 1328.81 570.221 1335.42 572.625C1345.55 576.313 1352.39 581.575 1355.95 588.41C1359.5 595.246 1359.86 602.555 1357.03 610.337C1354.78 616.504 1351 620.972 1345.66 623.743C1340.4 626.483 1335.34 627.522 1330.48 626.862L1330.37 627.156C1335.34 629.796 1339.32 634.461 1342.32 641.15C1345.32 647.839 1345.57 654.609 1343.08 661.461C1339.37 671.641 1333.49 678.59 1325.43 682.307C1317.44 685.994 1307.03 685.504 1294.21 680.836C1286.77 678.129 1281.15 674.449 1277.36 669.798C1273.58 665.098 1270.94 660.841 1269.45 657.027Z" fill="#A2A2A2"/>
<path d="M1536.56 413.433C1543.07 404.132 1550.81 398.298 1559.78 395.931C1568.79 393.594 1578.12 395.802 1587.76 402.553C1597.83 409.603 1602.55 418.886 1601.93 430.402C1601.38 441.906 1596.23 454.612 1586.49 468.52C1573.35 487.292 1560.96 498.041 1549.32 500.766C1537.72 503.448 1527.24 501.518 1517.9 494.976C1512.56 491.241 1508.78 487.571 1506.53 483.966C1504.29 480.36 1502.76 476.684 1501.95 472.937C1501.32 470.019 1501.89 468.348 1503.65 467.926L1509.12 466.513C1511.27 465.984 1512.74 467.202 1513.52 470.168C1514.15 472.638 1515.22 475.141 1516.75 477.676C1518.29 480.21 1521.1 482.912 1525.2 485.78C1530.96 489.813 1537.98 490.443 1546.28 487.671C1554.58 484.898 1563.05 477.347 1571.68 465.017L1571.56 464.928C1567.69 466.356 1563.26 466.783 1558.26 466.206C1553.33 465.616 1548.12 463.395 1542.61 459.541C1535.79 454.761 1531.42 448.239 1529.52 439.974C1527.64 431.666 1529.99 422.819 1536.56 413.433ZM1549.37 421.832C1545.04 428.018 1543.22 433.705 1543.91 438.894C1544.63 444.04 1547.17 448.136 1551.52 451.183C1557.15 455.127 1562.73 456.461 1568.27 455.186C1573.84 453.941 1578.68 450.396 1582.77 444.551C1586.48 439.26 1588.36 433.43 1588.44 427.06C1588.58 420.676 1586.08 415.678 1580.91 412.063C1575.58 408.329 1570.08 407.466 1564.41 409.475C1558.75 411.484 1553.73 415.603 1549.37 421.832Z" fill="#A2A2A2"/>
</g>
<defs>
<clipPath id="clip0_1_2">
<rect width="1680" height="720" fill="white"/>
</clipPath>
</defs>
</svg>
